<?xml version="1.0" standalone="no"?>
<!DOCTYPE svg PUBLIC "-//W3C//DTD SVG 20010904//EN"
 "http://www.w3.org/TR/2001/REC-SVG-20010904/DTD/svg10.dtd">
<svg version="1.0" xmlns="http://www.w3.org/2000/svg"
 width="512.000000pt" height="512.000000pt" viewBox="0 0 512.000000 512.000000"
 preserveAspectRatio="xMidYMid meet">

<g transform="translate(0.000000,512.000000) scale(0.100000,-0.100000)"
fill="#000000" stroke="none">
<path d="M2370 5114 c-19 -2 -78 -9 -130 -15 -791 -90 -1522 -586 -1924 -1305
-146 -262 -252 -588 -297 -914 -18 -125 -18 -515 0 -640 105 -762 511 -1409
1146 -1826 609 -400 1377 -517 2090 -317 929 260 1646 1043 1819 1987 156 845
-103 1682 -705 2285 -399 398 -879 639 -1449 726 -100 15 -472 28 -550 19z
m395 -304 c498 -46 977 -263 1348 -610 303 -284 542 -695 640 -1101 49 -201
61 -309 61 -539 0 -230 -12 -338 -61 -539 -78 -325 -246 -653 -471 -921 -296
-354 -732 -624 -1183 -733 -201 -49 -309 -61 -539 -61 -231 0 -338 12 -540 61
-396 96 -810 334 -1087 626 -456 480 -682 1125 -623 1772 54 583 345 1143 790
1518 464 390 1069 582 1665 527z"/>
<path d="M2388 4095 c-611 -84 -1119 -531 -1284 -1132 -250 -913 385 -1838
1336 -1944 257 -29 566 23 781 131 162 82 376 261 448 375 80 126 93 300 33
430 -93 198 -310 303 -515 250 -92 -24 -154 -61 -239 -145 -45 -44 -102 -89
-131 -103 -270 -131 -652 19 -796 313 -68 140 -87 279 -56 425 50 240 260 450
500 500 183 38 297 13 544 -119 221 -119 495 -28 608 201 34 69 38 85 41 173
4 81 0 110 -17 162 -43 128 -111 201 -279 297 -287 164 -639 231 -974 186z
m369 -296 c170 -23 320 -74 465 -156 107 -61 138 -99 138 -166 0 -69 -27 -112
-86 -139 -56 -24 -96 -19 -162 22 -81 49 -194 98 -282 122 -119 31 -348 31
-463 0 -338 -93 -596 -351 -689 -689 -31 -112 -31 -354 0 -466 93 -341 350
-596 692 -689 70 -18 110 -22 225 -22 242 0 385 56 550 214 39 37 80 72 92 79
55 28 141 1 180 -58 27 -39 31 -107 9 -149 -23 -43 -165 -175 -243 -226 -369
-238 -887 -216 -1289 55 -102 69 -257 223 -324 323 -292 437 -292 976 0 1412
68 101 223 256 324 324 259 173 571 249 863 209z"/>
</g>
</svg>
