<?xml version="1.0" standalone="no"?>
<!DOCTYPE svg PUBLIC "-//W3C//DTD SVG 20010904//EN"
 "http://www.w3.org/TR/2001/REC-SVG-20010904/DTD/svg10.dtd">
<svg version="1.0" xmlns="http://www.w3.org/2000/svg"
 width="512.000000pt" height="512.000000pt" viewBox="0 0 512.000000 512.000000"
 preserveAspectRatio="xMidYMid meet">

<g transform="translate(0.000000,512.000000) scale(0.100000,-0.100000)"
fill="#000000" stroke="none">
<path d="M243 5106 c-88 -28 -176 -107 -216 -194 l-22 -47 0 -2305 0 -2305 22
-47 c30 -66 105 -143 172 -175 l56 -28 2305 0 2305 0 56 28 c67 32 142 109
172 175 l22 47 0 2305 0 2305 -27 55 c-35 71 -97 133 -167 168 l-56 27 -2290
2 c-1865 1 -2298 -1 -2332 -11z m4594 -167 c15 -5 41 -22 57 -37 51 -48 56
-74 56 -277 l0 -185 -2390 0 -2390 0 0 184 c0 196 5 223 48 270 56 59 -106 55
2339 56 1567 0 2260 -3 2280 -11z m113 -2648 c0 -1375 -3 -1988 -11 -2008 -14
-38 -57 -83 -96 -99 -48 -21 -4518 -21 -4566 0 -39 16 -82 61 -96 99 -8 20
-11 633 -11 2008 l0 1979 2390 0 2390 0 0 -1979z"/>
<path d="M369 4751 c-31 -31 -36 -59 -17 -94 20 -39 40 -46 120 -47 74 0 77 1
103 32 32 38 29 81 -11 116 -21 18 -37 22 -95 22 -65 0 -73 -2 -100 -29z"/>
<path d="M815 4768 c-51 -29 -61 -93 -20 -133 21 -22 33 -25 100 -25 67 0 79
3 100 25 41 40 33 105 -16 130 -33 18 -136 19 -164 3z"/>
<path d="M1242 4770 c-27 -11 -51 -62 -44 -96 8 -45 46 -64 129 -64 65 0 77 3
98 25 35 34 33 78 -4 116 -27 26 -36 29 -93 28 -35 0 -73 -4 -86 -9z"/>
<path d="M4145 4768 c-52 -28 -62 -92 -20 -133 l24 -25 288 0 c302 1 307 1
331 47 19 35 14 63 -17 94 l-29 29 -279 0 c-182 -1 -285 -4 -298 -12z"/>
<path d="M930 3571 c-76 -23 -140 -71 -185 -135 -62 -91 -65 -121 -65 -592 l0
-421 -23 -34 c-32 -47 -81 -78 -139 -85 -57 -8 -88 -39 -88 -89 0 -44 34 -73
101 -85 58 -11 91 -30 123 -74 20 -27 21 -43 26 -484 l5 -457 27 -58 c55 -116
174 -197 296 -201 48 -1 56 2 79 28 20 24 24 36 19 65 -7 46 -33 67 -93 76
-61 9 -106 36 -135 83 -23 37 -23 39 -28 492 -5 436 -6 457 -26 501 -12 25
-36 62 -54 83 l-33 37 30 32 c17 18 41 52 54 77 24 45 24 46 29 500 3 312 9
463 17 481 14 32 77 87 106 93 12 3 39 8 59 11 74 12 103 102 47 148 -22 18
-101 22 -149 8z"/>
<path d="M4042 3564 c-56 -47 -29 -137 46 -149 20 -3 47 -8 59 -11 29 -6 92
-61 106 -93 8 -18 13 -172 17 -481 5 -454 5 -455 29 -500 13 -25 37 -59 54
-77 l30 -32 -33 -37 c-18 -21 -42 -58 -54 -83 -20 -44 -21 -65 -26 -501 -5
-453 -5 -455 -28 -492 -29 -47 -74 -74 -135 -83 -60 -9 -86 -30 -93 -76 -5
-29 -1 -41 19 -65 22 -25 32 -29 74 -28 101 1 209 59 267 142 60 88 60 86 66
579 5 436 6 453 26 479 32 44 65 63 123 74 67 12 101 41 101 85 0 50 -31 81
-88 89 -58 7 -107 38 -139 85 l-23 34 0 421 c0 471 -3 501 -65 592 -59 85
-144 134 -245 142 -53 3 -69 1 -88 -14z"/>
<path d="M1450 2976 c-159 -34 -278 -147 -325 -308 -14 -49 -16 -111 -13 -475
l3 -418 32 -68 c59 -124 161 -209 294 -243 210 -54 436 76 499 285 20 64 21
89 18 492 l-3 424 -32 68 c-61 128 -168 214 -300 242 -80 17 -100 17 -173 1z
m186 -181 c51 -21 110 -81 133 -135 21 -49 22 -60 19 -453 -3 -445 -2 -437
-70 -506 -54 -55 -104 -75 -183 -75 -101 0 -179 47 -228 139 -21 39 -22 52
-25 432 -2 250 1 407 8 431 39 145 205 225 346 167z"/>
<path d="M2487 2980 c-174 -31 -318 -178 -347 -356 -14 -82 -13 -745 1 -820
16 -87 55 -162 118 -225 170 -169 432 -170 600 -2 67 67 106 143 120 234 14
80 14 734 1 812 -11 72 -50 157 -95 213 -88 108 -257 169 -398 144z m193 -198
c67 -33 113 -97 130 -177 8 -37 10 -175 8 -422 l-3 -368 -30 -55 c-38 -68 -98
-115 -170 -131 -113 -25 -222 26 -280 131 l-30 55 0 401 0 400 30 59 c35 68
87 111 162 131 61 17 114 10 183 -24z"/>
<path d="M3220 2983 c-8 -3 -25 -15 -37 -26 l-23 -20 0 -719 c0 -702 0 -718
20 -738 43 -43 110 -34 137 20 9 18 13 98 13 288 l0 262 159 0 c130 0 170 4
223 20 120 37 224 134 271 253 29 75 36 261 12 343 -48 167 -173 282 -339 313
-60 11 -408 14 -436 4z m460 -185 c51 -22 97 -64 128 -116 23 -41 27 -60 30
-150 4 -99 3 -105 -27 -167 -34 -68 -81 -110 -150 -133 -20 -7 -96 -12 -182
-12 l-149 0 0 301 0 301 158 -4 c110 -3 167 -9 192 -20z"/>
</g>
</svg>
